<?xml version="1.0" standalone="no"?>
<!DOCTYPE svg PUBLIC "-//W3C//DTD SVG 20010904//EN"
 "http://www.w3.org/TR/2001/REC-SVG-20010904/DTD/svg10.dtd">
<svg version="1.0" xmlns="http://www.w3.org/2000/svg"
 width="212.000000pt" height="212.000000pt" viewBox="0 0 212.000000 212.000000"
 preserveAspectRatio="xMidYMid meet">
<metadata>
Created by potrace 1.11, written by Peter Selinger 2001-2013
</metadata>
<g transform="translate(0.000000,212.000000) scale(0.100000,-0.100000)"
fill="#000000" stroke="none">
<path d="M475 1941 c-17 -4 -42 -15 -57 -25 -54 -35 -55 -43 -67 -566 -7 -267
-16 -546 -21 -620 -5 -74 -12 -205 -16 -290 -6 -144 -5 -159 14 -202 61 -139
227 -159 682 -83 280 47 434 99 471 159 42 69 16 174 -53 216 -46 28 -82 25
-227 -15 -269 -73 -581 -119 -581 -84 0 8 7 97 15 199 18 233 38 866 33 1067
-3 135 -5 155 -24 180 -39 52 -109 78 -169 64z"/>
<path d="M942 1400 c-47 -44 -13 -120 53 -120 18 0 41 9 53 20 47 44 13 120
-53 120 -18 0 -41 -9 -53 -20z"/>
<path d="M1184 1209 c-17 -19 -19 -41 -22 -238 -4 -243 3 -287 45 -297 34 -9
75 14 84 46 4 14 7 74 8 133 l1 108 54 55 c30 30 59 54 64 54 5 0 12 -53 16
-117 17 -270 20 -294 41 -309 25 -19 55 -18 84 3 23 16 24 19 18 117 -4 56 -9
135 -13 178 l-7 76 54 31 c38 21 57 27 65 20 17 -14 30 -86 44 -229 13 -130
24 -176 46 -184 27 -10 59 -6 83 10 22 16 23 21 17 78 -18 155 -49 354 -61
383 -30 71 -130 94 -218 49 -45 -22 -47 -23 -63 -4 -10 10 -35 23 -57 29 -47
13 -82 2 -137 -41 l-39 -31 1 32 c2 60 -69 91 -108 48z"/>
<path d="M932 1182 c-16 -16 -20 -42 -25 -155 -8 -168 1 -313 20 -333 8 -8 30
-14 48 -14 61 0 65 15 65 266 0 201 -2 222 -18 237 -24 22 -68 21 -90 -1z"/>
</g>
</svg>
